<svg xmlns="http://www.w3.org/2000/svg" width="1890" height="1890" viewBox="0 0 1890 1890" version="1.1"><path d="M 788 16.324 C 845.132 44.949, 884.704 67.725, 930 98.055 C 956.337 115.690, 983.509 135.896, 982.377 137.004 C 981.894 137.475, 867.425 204.995, 728 287.048 C 588.575 369.102, 474.202 436.520, 473.838 436.868 C 473.190 437.487, 541.061 553.500, 542.070 553.500 C 542.513 553.500, 1480.795 1.263, 1481.917 0.342 C 1482.146 0.154, 1422.290 -0, 1348.905 -0 L 1215.476 -0 1166.140 29.069 C 1138.968 45.079, 1116.172 57.896, 1115.397 57.599 C 1114.623 57.302, 1103.980 49.929, 1091.745 41.215 C 1079.510 32.501, 1061.272 19.663, 1051.215 12.686 L 1032.930 0 894.215 0.020 L 755.500 0.040 788 16.324 M 1471.500 128.690 C 1435.200 139.445, 1405.370 148.358, 1405.212 148.494 C 1405.053 148.631, 1409.178 159.714, 1414.379 173.122 C 1495.506 382.280, 1535.843 582.903, 1535.994 778 C 1536.010 798.075, 1535.485 826.305, 1534.828 840.734 C 1534.172 855.162, 1533.829 867.148, 1534.067 867.368 C 1534.642 867.900, 1669.034 878.307, 1669.455 877.853 C 1670.085 877.173, 1672.968 829.229, 1674.107 800.500 C 1677.220 721.968, 1670.938 622.795, 1657.979 545.873 C 1656.340 536.149, 1655 527.970, 1655 527.696 C 1655 527.031, 1672.609 532.334, 1706.500 543.206 C 1760.112 560.404, 1810.543 578.530, 1862.250 599.184 L 1890 610.268 1890.245 749.384 C 1890.450 866.374, 1890.540 874.106, 1890.809 798 C 1890.984 748.225, 1890.820 653.872, 1890.442 588.326 L 1889.756 469.153 1861.628 458.958 C 1800.801 436.912, 1644.557 383.939, 1628.244 379.831 C 1623.013 378.514, 1623.225 378.934, 1618.461 360.500 C 1613.170 340.027, 1603.295 305.286, 1594.017 274.500 C 1579.890 227.626, 1539.780 108.892, 1538.131 109.067 C 1537.784 109.104, 1507.800 117.934, 1471.500 128.690 M 164.215 492.143 L 1 588.256 1 739.081 L 1 889.906 5.379 901.703 C 7.787 908.191, 15.204 929.475, 21.861 949 C 125.183 1252.061, 159.403 1529.419, 124.785 1783.214 C 122.480 1800.107, 120.823 1814.156, 121.102 1814.435 C 121.804 1815.137, 263.343 1862.990, 263.690 1862.643 C 265.061 1861.272, 273.216 1799.178, 275.924 1769.500 C 279.825 1726.737, 282.127 1672.828, 281.305 1643.500 C 280.977 1631.824, 281.016 1631.565, 282.734 1633.917 C 283.705 1635.246, 318.049 1693.296, 359.054 1762.917 L 433.608 1889.500 514.304 1889.756 C 558.687 1889.897, 595 1889.774, 595 1889.484 C 595 1889.194, 531.514 1781.153, 453.920 1649.392 C 376.326 1517.631, 312.988 1409.690, 313.170 1409.523 C 314.158 1408.612, 599.350 1241.004, 599.874 1241.027 C 600.218 1241.042, 686.450 1387.066, 791.500 1565.526 L 982.500 1889.998 1060.857 1889.999 C 1123.137 1890, 1139.113 1889.744, 1138.724 1888.750 C 1137.992 1886.882, 648.986 1056.602, 648.187 1055.871 C 647.809 1055.524, 558.400 1107.766, 449.500 1171.964 C 340.600 1236.161, 251.238 1288.420, 250.918 1288.093 C 250.598 1287.767, 248.422 1278.050, 246.082 1266.500 C 204.719 1062.304, 145.493 865.634, 80.685 717.269 L 73.158 700.039 81.329 695.140 C 85.823 692.446, 158.125 649.852, 242 600.487 C 325.875 551.122, 394.649 510.606, 394.832 510.451 C 395.169 510.165, 329.433 398.117, 328.135 396.765 C 327.747 396.360, 253.983 439.281, 164.215 492.143 M 930.017 455.631 C 895.652 465.807, 867.386 474.281, 867.203 474.463 C 867.021 474.646, 869.403 482.154, 872.496 491.147 C 890.173 542.543, 908.682 607.773, 921.400 663.500 C 939.652 743.477, 950.582 817.021, 956.624 900.500 C 958.705 929.245, 959.603 1023.499, 958.088 1054.122 C 954.531 1126.036, 947.091 1186.764, 933.381 1255.794 C 930.837 1268.606, 928.971 1279.304, 929.234 1279.568 C 929.861 1280.194, 1068.360 1302.973, 1068.810 1302.524 C 1069.672 1301.661, 1073.367 1285.569, 1077.462 1264.839 C 1094.412 1179.025, 1101.226 1072.377, 1098.815 930.625 C 1098.320 901.544, 1098.111 877.556, 1098.350 877.317 C 1098.927 876.740, 1134.726 889.935, 1164 901.515 C 1248.582 934.973, 1321.015 970.252, 1388.287 1010.755 C 1396.969 1015.983, 1404.244 1020.089, 1404.453 1019.880 C 1404.965 1019.367, 1444 879.586, 1444 878.265 C 1444 877.038, 1391.403 850.705, 1365.500 838.964 C 1293.870 806.496, 1222.204 778.831, 1122 744.966 C 1073.741 728.656, 1072.482 728.165, 1071.776 725.369 C 1071.377 723.791, 1068.315 708.325, 1064.971 691 C 1046.727 596.486, 1025.869 518.426, 1000.507 449.750 C 997.031 440.335, 995.367 437.017, 994.149 437.066 C 993.242 437.102, 964.383 445.456, 930.017 455.631 M 1546.766 995.759 C 1513.363 1015.417, 1486.025 1031.881, 1486.016 1032.347 C 1486.007 1032.813, 1513.286 1079.530, 1546.635 1136.163 C 1581.326 1195.075, 1606.891 1239.499, 1606.385 1239.991 C 1605.898 1240.465, 1488.725 1309.582, 1346 1393.586 C 1203.275 1477.590, 1086.334 1546.452, 1086.131 1546.613 C 1085.697 1546.956, 1150.716 1657.891, 1152.464 1659.791 C 1153.417 1660.825, 1205.326 1630.649, 1413.746 1507.904 C 1556.797 1423.656, 1674.212 1354.796, 1674.669 1354.882 C 1675.126 1354.967, 1723.453 1436.469, 1782.061 1535.996 C 1840.670 1635.524, 1888.932 1717.266, 1889.311 1717.645 C 1889.690 1718.023, 1889.999 1655.596, 1889.997 1578.917 L 1889.994 1439.500 1844.339 1362.005 C 1819.229 1319.382, 1798.522 1283.832, 1798.323 1283.005 C 1798.068 1281.940, 1811.429 1273.598, 1843.976 1254.500 L 1889.990 1227.500 1889.995 1150.643 C 1889.999 1089.565, 1889.743 1073.885, 1888.750 1074.269 C 1888.063 1074.534, 1852.272 1095.507, 1809.216 1120.876 C 1766.160 1146.244, 1730.610 1166.999, 1730.216 1166.997 C 1729.822 1166.996, 1702.082 1120.421, 1668.572 1063.497 C 1635.061 1006.574, 1607.611 960.004, 1607.572 960.009 C 1607.532 960.014, 1580.170 976.102, 1546.766 995.759" stroke="none" fill="#d3d3d3" fill-rule="evenodd"/><path d="M -0 294.426 L -0 588.852 86.750 537.762 C 134.463 509.662, 208.135 466.278, 250.467 441.352 C 292.799 416.427, 327.750 396.364, 328.137 396.767 C 329.434 398.118, 395.169 510.165, 394.832 510.451 C 394.649 510.606, 325.875 551.122, 242 600.487 C 158.125 649.852, 85.823 692.446, 81.329 695.140 L 73.158 700.039 80.685 717.269 C 145.493 865.634, 204.719 1062.304, 246.082 1266.500 C 248.422 1278.050, 250.598 1287.767, 250.918 1288.093 C 251.238 1288.420, 340.600 1236.156, 449.500 1171.952 C 616.804 1073.315, 647.682 1055.446, 648.672 1056.694 C 649.317 1057.506, 760.017 1245.318, 894.672 1474.055 L 1139.500 1889.940 1515 1889.720 L 1890.500 1889.500 1890.813 1528 C 1890.985 1329.175, 1890.817 1041.326, 1890.439 888.335 L 1889.753 610.169 1862.126 599.134 C 1810.546 578.531, 1760.066 560.390, 1706.500 543.206 C 1672.609 532.334, 1655 527.031, 1655 527.696 C 1655 527.970, 1656.340 536.149, 1657.979 545.873 C 1670.938 622.795, 1677.220 721.968, 1674.107 800.500 C 1672.968 829.229, 1670.085 877.173, 1669.455 877.853 C 1669.034 878.307, 1534.642 867.900, 1534.067 867.368 C 1533.829 867.148, 1534.172 855.162, 1534.828 840.734 C 1535.485 826.305, 1536.010 798.075, 1535.994 778 C 1535.843 582.903, 1495.506 382.280, 1414.379 173.122 C 1409.178 159.714, 1405.053 148.632, 1405.212 148.495 C 1405.871 147.927, 1538.383 109.050, 1538.673 109.340 C 1539.524 110.191, 1560.278 170.157, 1572.299 206.500 C 1590.766 262.332, 1607.628 318.584, 1618.461 360.500 C 1623.225 378.934, 1623.013 378.514, 1628.244 379.831 C 1644.575 383.943, 1800.807 436.914, 1861.742 458.999 L 1889.984 469.235 1890.250 528.868 C 1890.396 561.665, 1890.625 456.088, 1890.758 294.250 L 1891 0 1686.746 0 L 1482.493 0 1012.537 276.750 C 754.062 428.963, 542.351 553.500, 542.070 553.500 C 541.060 553.500, 473.191 437.486, 473.838 436.868 C 474.202 436.520, 588.575 369.102, 728 287.048 C 867.425 204.995, 981.894 137.475, 982.377 137.004 C 983.584 135.823, 955.437 115.029, 927 96.092 C 881.293 65.656, 828.865 35.858, 776.125 10.342 L 754.750 0 377.375 0 L 0 0 -0 294.426 M 1034 0.398 C 1034 0.617, 1041.987 6.323, 1051.750 13.077 C 1061.513 19.831, 1079.510 32.490, 1091.745 41.208 C 1103.980 49.926, 1114.625 57.303, 1115.402 57.601 C 1116.182 57.900, 1137.980 45.670, 1164.156 30.247 C 1190.195 14.905, 1212.400 1.837, 1213.500 1.207 C 1215.014 0.339, 1193.465 0.053, 1124.750 0.030 C 1074.838 0.014, 1034 0.179, 1034 0.398 M 0.493 295 C 0.493 456.975, 0.609 523.237, 0.750 442.250 C 0.891 361.262, 0.891 228.737, 0.750 147.750 C 0.609 66.762, 0.493 133.025, 0.493 295 M 930.017 455.631 C 895.652 465.807, 867.386 474.281, 867.203 474.463 C 867.021 474.646, 869.403 482.154, 872.496 491.147 C 890.173 542.543, 908.682 607.773, 921.400 663.500 C 939.652 743.477, 950.582 817.021, 956.624 900.500 C 958.705 929.245, 959.603 1023.499, 958.088 1054.122 C 954.531 1126.036, 947.091 1186.764, 933.381 1255.794 C 930.837 1268.606, 928.971 1279.304, 929.234 1279.568 C 929.861 1280.194, 1068.360 1302.973, 1068.810 1302.524 C 1069.672 1301.661, 1073.367 1285.569, 1077.462 1264.839 C 1094.412 1179.025, 1101.226 1072.377, 1098.815 930.625 C 1098.320 901.544, 1098.111 877.556, 1098.350 877.317 C 1098.927 876.740, 1134.726 889.935, 1164 901.515 C 1248.582 934.973, 1321.015 970.252, 1388.287 1010.755 C 1396.969 1015.983, 1404.244 1020.089, 1404.453 1019.880 C 1404.965 1019.367, 1444 879.586, 1444 878.265 C 1444 877.038, 1391.403 850.705, 1365.500 838.964 C 1293.870 806.496, 1222.204 778.831, 1122 744.966 C 1073.741 728.656, 1072.482 728.165, 1071.776 725.369 C 1071.377 723.791, 1068.315 708.325, 1064.971 691 C 1046.727 596.486, 1025.869 518.426, 1000.507 449.750 C 997.031 440.335, 995.367 437.017, 994.149 437.066 C 993.242 437.102, 964.383 445.456, 930.017 455.631 M 1.046 1390.250 L 1 1890 217.446 1890 L 433.892 1890 422.269 1870.250 C 324.495 1704.099, 282.691 1633.323, 281.843 1632.500 C 281.136 1631.815, 280.943 1635.275, 281.227 1643.500 C 282.187 1671.313, 279.881 1726.127, 275.924 1769.500 C 273.216 1799.178, 265.061 1861.272, 263.690 1862.643 C 263.343 1862.990, 121.804 1815.137, 121.102 1814.435 C 120.823 1814.156, 122.480 1800.107, 124.785 1783.214 C 156.788 1548.589, 129.940 1293.783, 44.052 1017 C 34.127 985.017, 11.296 917.120, 4.542 899.500 L 1.092 890.500 1.046 1390.250 M 1546.766 995.759 C 1513.363 1015.417, 1486.025 1031.881, 1486.016 1032.347 C 1486.007 1032.813, 1513.286 1079.530, 1546.635 1136.163 C 1581.326 1195.075, 1606.891 1239.499, 1606.385 1239.991 C 1605.898 1240.465, 1488.725 1309.582, 1346 1393.586 C 1203.275 1477.590, 1086.334 1546.452, 1086.131 1546.613 C 1085.697 1546.956, 1150.716 1657.891, 1152.464 1659.791 C 1153.417 1660.825, 1205.326 1630.649, 1413.746 1507.904 C 1556.797 1423.656, 1674.212 1354.796, 1674.669 1354.882 C 1675.126 1354.967, 1723.453 1436.469, 1782.061 1535.996 C 1840.670 1635.524, 1888.932 1717.266, 1889.311 1717.645 C 1889.690 1718.023, 1889.999 1655.596, 1889.997 1578.917 L 1889.994 1439.500 1844.339 1362.005 C 1819.229 1319.382, 1798.522 1283.832, 1798.323 1283.005 C 1798.068 1281.940, 1811.429 1273.598, 1843.976 1254.500 L 1889.990 1227.500 1889.995 1150.643 C 1889.999 1089.565, 1889.743 1073.885, 1888.750 1074.269 C 1888.063 1074.534, 1852.272 1095.507, 1809.216 1120.876 C 1766.160 1146.244, 1730.610 1166.999, 1730.216 1166.997 C 1729.822 1166.996, 1702.082 1120.421, 1668.572 1063.497 C 1635.061 1006.574, 1607.611 960.004, 1607.572 960.009 C 1607.532 960.014, 1580.170 976.102, 1546.766 995.759 M 457 1324.658 C 379.175 1370.566, 314.886 1408.483, 314.135 1408.917 C 313.104 1409.514, 347.344 1468.436, 454.135 1649.835 L 595.500 1889.961 788.833 1889.981 C 901.980 1889.992, 982.028 1889.629, 981.833 1889.106 C 980.446 1885.387, 600.276 1241.069, 599.500 1241.121 C 598.950 1241.158, 534.825 1278.750, 457 1324.658" stroke="none" fill="#0c442c" fill-rule="evenodd"/></svg>