<?xml version="1.0" standalone="no"?>
<!DOCTYPE svg PUBLIC "-//W3C//DTD SVG 20010904//EN"
 "http://www.w3.org/TR/2001/REC-SVG-20010904/DTD/svg10.dtd">
<svg version="1.0" xmlns="http://www.w3.org/2000/svg"
 width="1890.000000pt" height="1890.000000pt" viewBox="0 0 1890.000000 1890.000000"
 preserveAspectRatio="xMidYMid meet">

<g transform="translate(0.000000,1890.000000) scale(0.100000,-0.100000)"
fill="#000000" stroke="none">
<path d="M0 17199 c0 -1357 3 -1700 13 -1696 11 4 345 200 1551 911 231 136
422 243 426 239 5 -4 185 -309 402 -678 631 -1071 818 -1387 941 -1595 63
-107 112 -198 108 -202 -3 -3 -645 -383 -1426 -842 -780 -460 -1423 -840
-1428 -845 -4 -4 28 -115 73 -247 270 -801 631 -1963 815 -2624 31 -113 70
-250 85 -305 111 -388 326 -1256 450 -1819 44 -198 81 -361 83 -362 1 -2 844
492 1871 1097 1028 605 1872 1097 1877 1092 8 -8 103 -169 897 -1518 201 -341
460 -782 577 -980 233 -395 507 -861 912 -1548 144 -246 382 -648 527 -895
144 -246 405 -688 578 -982 302 -512 590 -1002 1063 -1805 410 -696 748 -1270
844 -1432 l95 -163 3783 0 3783 0 0 120 0 120 -79 133 c-43 72 -162 274 -263
447 -102 173 -327 556 -500 850 -173 294 -503 855 -733 1245 -230 391 -535
908 -677 1150 -143 242 -303 515 -356 607 -54 92 -101 167 -105 168 -5 0 -84
-44 -175 -98 -504 -298 -1648 -972 -1717 -1012 -78 -46 -2589 -1524 -2875
-1693 -80 -47 -148 -83 -152 -79 -4 4 -333 561 -732 1237 -544 924 -721 1233
-713 1241 9 8 4302 2539 4830 2847 37 22 67 43 67 48 0 5 -52 98 -116 206 -65
109 -191 324 -282 478 -91 154 -216 367 -279 473 -63 107 -113 195 -111 196 1
2 147 88 323 191 788 463 1371 808 1379 815 13 13 -189 16 -987 16 -400 -1
-727 0 -727 2 0 2 9 63 20 135 84 570 114 1004 114 1682 0 541 -14 854 -60
1325 -142 1470 -502 3152 -1015 4734 -5 16 -7 32 -4 35 3 3 586 208 1295 457
l1289 451 10 -31 c147 -459 432 -1523 596 -2225 41 -172 75 -314 77 -316 2 -1
125 -27 273 -59 665 -141 1656 -380 2263 -545 62 -17 115 -31 117 -31 3 0 5
806 5 1790 l0 1790 -2326 0 -2325 0 -1752 -1032 c-2093 -1232 -3445 -2029
-4862 -2863 -2440 -1437 -2778 -1635 -2781 -1632 -2 1 -45 75 -97 162 -52 88
-170 288 -262 445 -93 157 -212 359 -265 450 -53 91 -217 370 -365 620 -395
669 -444 754 -442 756 1 1 371 219 822 484 451 266 1185 698 1630 960 446 263
1179 694 1630 960 451 265 822 484 824 487 3 2 -40 49 -94 103 l-100 100
-4067 0 -4068 0 0 -1701z m9733 -2456 c221 -700 391 -1292 527 -1838 l62 -251
111 -22 c598 -122 1764 -403 2382 -576 525 -146 976 -290 970 -309 -4 -12
-700 -2178 -757 -2357 -17 -52 -34 -99 -38 -103 -4 -5 -43 9 -86 31 -307 154
-827 343 -1683 611 -331 103 -376 115 -379 100 -2 -10 13 -141 32 -291 154
-1187 192 -2305 110 -3298 -18 -223 -38 -397 -46 -405 -3 -3 -50 1 -104 9 -82
13 -370 51 -539 71 -270 32 -1017 97 -1275 110 -63 4 -135 8 -160 10 -25 2
-130 7 -235 11 -104 4 -199 8 -210 9 -11 1 -55 3 -99 4 l-79 1 7 48 c32 231
70 616 81 832 3 63 8 145 11 182 7 98 7 820 -1 983 -38 819 -136 1577 -321
2495 -225 1111 -499 2091 -925 3299 -25 71 -40 126 -34 128 68 27 2534 882
2546 882 12 1 43 -85 132 -366z"/>
<path d="M16674 13128 c42 -307 94 -973 111 -1419 18 -443 5 -1142 -29 -1546
-9 -100 -10 -165 -4 -176 21 -40 630 -1073 637 -1080 4 -4 284 155 622 354
338 199 676 398 752 443 l137 80 -2 1356 -3 1355 -260 87 c-341 113 -796 255
-1175 367 -320 93 -772 221 -784 221 -4 0 -5 -19 -2 -42z"/>
<path d="M18876 6427 c-18 -13 -18 -14 0 -48 l19 -34 3 28 c2 15 2 36 0 48 -3
18 -5 18 -22 6z"/>
<path d="M4875 5551 c-44 -27 -402 -238 -795 -470 -393 -231 -721 -425 -728
-429 -10 -7 255 -465 1079 -1863 969 -1646 1305 -2216 1567 -2661 l75 -128
1100 0 1099 0 -20 33 c-11 17 -407 689 -879 1492 -473 803 -1138 1933 -1478
2510 -340 578 -686 1166 -769 1307 -83 142 -155 258 -161 257 -5 0 -46 -21
-90 -48z"/>
<path d="M0 631 l0 -631 710 0 709 0 -132 128 c-443 428 -979 901 -1274 1125
-10 8 -13 -118 -13 -622z"/>
<path d="M2702 563 c-4 -73 -31 -430 -38 -500 l-7 -63 207 0 208 0 -20 33
c-11 17 -88 149 -172 292 -84 143 -158 266 -164 273 -10 10 -13 2 -14 -35z"/>
</g>
</svg>
