<?xml version="1.0" standalone="no"?>
<!DOCTYPE svg PUBLIC "-//W3C//DTD SVG 20010904//EN"
 "http://www.w3.org/TR/2001/REC-SVG-20010904/DTD/svg10.dtd">
<svg version="1.0" xmlns="http://www.w3.org/2000/svg"
 width="512.000000pt" height="512.000000pt" viewBox="0 0 512.000000 512.000000"
 preserveAspectRatio="xMidYMid meet">
<metadata>
Created by potrace 1.11, written by Peter Selinger 2001-2013
</metadata>
<g transform="translate(0.000000,512.000000) scale(0.100000,-0.100000)"
fill="#000000" stroke="none">
<path d="M3410 5090 c11 -16 25 -32 30 -35 18 -11 10 -23 -36 -50 -25 -15 -44
-30 -42 -34 2 -5 81 -135 177 -290 95 -155 172 -283 170 -285 -4 -3 -569 410
-591 432 -7 7 4 19 41 39 28 15 51 31 51 35 0 8 -143 118 -153 118 -4 0 -7
-131 -7 -292 l0 -292 -27 -28 -27 -28 -499 0 -499 0 7 -67 c10 -95 36 -165 66
-180 16 -9 79 -13 193 -13 l169 0 -7 -112 c-22 -358 -64 -778 -107 -1045 -10
-68 -19 -126 -19 -130 0 -5 19 30 41 76 37 75 59 102 188 233 80 82 158 167
173 190 35 51 67 138 74 197 10 78 10 79 65 25 l51 -49 -5 -63 c-5 -65 -7 -68
-146 -295 -73 -118 -78 -216 -18 -341 l32 -66 64 50 c35 28 67 50 71 50 4 0
10 -17 14 -38 12 -77 131 -177 266 -223 l70 -24 0 -43 c0 -38 -5 -48 -48 -91
-27 -27 -68 -56 -95 -66 l-47 -18 0 -283 0 -284 -484 0 -484 0 -10 28 c-6 15
-13 36 -16 46 -4 10 1 44 10 75 13 46 27 67 82 121 37 36 117 104 177 150 160
122 288 252 308 314 19 57 22 144 6 179 -22 48 -109 76 -178 57 -79 -21 -144
-107 -158 -207 l-6 -46 -20 24 c-16 20 -18 34 -14 89 l6 65 -32 -95 c-37 -111
-61 -155 -100 -183 -36 -28 -45 -17 -63 74 -33 169 -9 272 77 334 96 70 94 67
74 108 -42 90 -378 365 -563 462 -51 26 -55 27 -85 13 -40 -19 -165 -136 -232
-217 l-50 -60 -84 0 -84 -1 6 68 c3 37 17 117 31 177 14 61 26 139 28 175 l3
65 -57 7 c-37 5 -99 26 -170 60 -109 51 -116 53 -199 53 -77 0 -92 -3 -147
-32 l-62 -32 0 39 c0 31 6 44 37 70 67 60 253 126 384 137 63 5 72 3 142 -31
91 -45 127 -45 139 -1 4 17 17 96 28 177 40 302 76 414 157 490 28 26 98 52
115 42 4 -3 8 -25 8 -50 l0 -44 105 0 c82 0 105 3 105 14 0 25 43 69 143 143
134 99 135 100 142 66 4 -16 14 -45 22 -66 20 -47 9 -71 -53 -118 -24 -18 -44
-36 -44 -41 0 -4 14 -15 32 -24 27 -14 51 -16 138 -11 169 10 250 46 250 113
0 31 -77 123 -239 284 -256 256 -407 316 -500 203 -17 -20 -63 -97 -103 -171
-40 -75 -86 -148 -101 -164 -27 -27 -33 -28 -120 -28 -51 0 -365 0 -699 0
l-606 0 -21 -26 c-40 -50 -20 -141 40 -186 65 -49 129 -62 309 -62 91 -1 171
-5 179 -10 30 -19 -2 -579 -55 -945 -61 -424 -206 -1011 -395 -1595 -61 -188
-70 -225 -65 -265 5 -40 25 -71 46 -71 3 0 5 15 5 33 0 26 4 33 23 35 19 3 22
-1 22 -27 0 -17 2 -31 5 -31 15 0 74 37 108 67 40 36 75 53 108 53 19 0 19
-15 19 -733 l0 -733 32 -18 c28 -17 45 -18 167 -12 226 10 390 56 467 131 l44
42 0 275 c0 259 1 276 19 292 31 28 54 16 86 -47 19 -38 41 -64 60 -74 65 -33
65 -33 65 -189 0 -142 0 -143 26 -163 69 -54 463 -1 643 87 100 49 94 18 95
511 l1 430 29 30 30 31 277 0 277 0 20 34 c52 87 209 149 295 117 24 -9 25
-13 28 -135 2 -68 7 -127 10 -130 3 -4 22 1 42 9 67 28 143 12 200 -43 137
-130 71 -388 -157 -612 l-56 -54 0 -73 c0 -68 2 -74 24 -85 38 -17 49 -57 44
-156 -4 -79 -8 -94 -46 -165 -27 -50 -42 -92 -42 -114 l0 -36 63 5 c35 3 77
13 95 22 l32 17 0 -41 c0 -25 -5 -40 -12 -41 -36 -3 77 -18 142 -18 107 -1
389 70 457 114 l23 15 0 658 0 658 28 27 28 27 285 0 c266 0 286 1 317 20 63
38 117 150 147 303 l18 87 31 0 c52 0 122 -53 262 -196 72 -74 136 -134 143
-134 6 0 11 14 11 31 0 72 -166 246 -413 433 -286 216 -301 214 -470 -60 -126
-204 -179 -254 -267 -254 -80 0 -122 82 -102 198 13 76 44 125 118 184 52 43
53 44 54 99 0 30 -5 60 -12 67 -9 9 -69 12 -209 12 -193 0 -198 1 -213 22 -36
50 -50 32 303 396 266 275 257 269 321 223 35 -25 54 -70 101 -234 80 -280
135 -354 264 -356 l40 -1 -106 103 c-113 109 -139 154 -139 240 0 89 116 363
201 476 49 65 48 67 -77 132 -107 55 -128 78 -122 139 7 73 36 119 154 241 84
86 115 126 124 157 23 73 13 79 -231 147 -198 55 -216 63 -246 95 -18 19 -33
38 -33 43 0 4 124 7 275 7 l275 0 0 53 c0 28 -11 97 -25 152 -14 55 -25 124
-25 154 l0 54 35 -6 c65 -11 212 -134 327 -274 31 -39 38 -41 38 -11 0 90
-216 315 -448 467 -204 133 -265 117 -404 -107 -93 -151 -140 -198 -204 -208
-58 -8 -91 2 -118 39 -19 26 -21 42 -21 193 l0 164 88 88 c76 76 88 93 85 118
-4 39 -46 61 -165 84 -100 19 -321 40 -426 40 l-58 0 21 -30z m-2129 -822
c-12 -39 -35 -68 -53 -68 -19 0 -1 80 29 123 l28 42 3 -30 c2 -16 -1 -46 -7
-67z m-329 20 c60 -49 90 -118 51 -118 -10 0 -37 9 -61 20 -46 21 -78 74 -67
111 9 27 30 24 77 -13z m2782 -278 c3 -134 -11 -408 -24 -498 -28 -192 -74
-309 -128 -331 -24 -10 -39 -9 -93 9 -122 41 -295 147 -333 205 -24 36 -20 72
20 185 36 104 37 130 8 130 -10 0 -27 -25 -47 -70 -25 -57 -35 -70 -54 -70
-17 0 -23 6 -23 24 0 76 50 121 170 151 120 30 131 35 146 70 18 45 8 90 -27
120 -31 26 -93 41 -299 74 -110 17 -127 23 -147 46 -50 57 -62 55 403 53 l427
-3 1 -95z m236 -350 c0 -11 -7 -20 -15 -20 -8 0 -15 9 -15 20 0 11 7 20 15 20
8 0 15 -9 15 -20z m330 -79 c29 -21 40 -61 16 -61 -17 0 -96 67 -96 81 0 13
51 0 80 -20z m-3180 -141 c0 -23 -33 -60 -55 -60 -11 0 -15 11 -15 40 0 39 1
40 35 40 28 0 35 -4 35 -20z m2588 -251 c-2 -6 -8 -10 -13 -10 -5 0 -11 4 -13
10 -2 6 4 11 13 11 9 0 15 -5 13 -11z m-1835 -60 c50 -13 77 -42 77 -78 0 -23
-10 -38 -41 -63 -130 -104 -130 -104 -150 -253 -12 -94 -29 -135 -54 -135 -35
0 -45 118 -25 289 24 213 73 274 193 240z m1407 -203 c0 -30 -4 -66 -9 -79
-11 -27 -56 -47 -107 -47 -30 0 -34 3 -34 26 0 19 18 44 65 90 36 35 70 64 75
64 6 0 10 -24 10 -54z m573 -28 c18 -21 25 -118 8 -118 -26 0 -81 98 -81 144
0 15 54 -4 73 -26z m-2873 -33 c38 -20 58 -55 68 -119 l9 -56 -27 0 c-15 0
-53 18 -86 40 -100 68 -151 65 -264 -15 -78 -55 -113 -59 -155 -15 -16 16 -26
33 -22 37 4 3 29 14 57 24 27 10 76 33 108 53 99 60 158 77 236 70 27 -3 61
-11 76 -19z m302 -55 c9 0 24 -7 32 -16 14 -14 16 -106 16 -865 0 -836 0 -849
-20 -869 -14 -14 -33 -20 -67 -20 -27 0 -65 -3 -85 -6 l-38 -7 0 891 0 891 38
4 c20 3 53 3 72 1 19 -2 43 -4 52 -4z m-728 -436 c9 -67 27 -98 116 -202 87
-101 106 -146 96 -220 -8 -58 -24 -84 -106 -177 -39 -44 -79 -93 -87 -110 -20
-38 -20 -137 0 -185 8 -19 17 -52 21 -72 6 -34 4 -38 -24 -53 -42 -22 -72 -16
-88 18 -20 42 -34 151 -30 237 3 71 6 83 41 132 56 82 49 102 -45 122 -25 6
-28 11 -28 45 0 47 33 246 60 356 21 90 46 155 59 155 4 0 11 -21 15 -46z
m3436 -189 c16 -19 3 -55 -21 -55 -14 0 -19 7 -19 28 0 43 17 54 40 27z m-750
-350 c0 -28 -4 -35 -20 -35 -24 0 -26 18 -4 48 21 30 24 28 24 -13z m-1265
-180 c0 -23 -4 -30 -20 -30 -21 0 -31 25 -21 51 11 28 41 12 41 -21z m2369
-58 c9 -15 7 -22 -13 -38 -32 -26 -46 -20 -48 25 -2 35 0 37 24 34 14 -2 31
-11 37 -21z m-2409 -169 c19 -66 19 -98 -1 -178 l-17 -65 37 -72 c42 -84 43
-106 16 -228 -11 -49 -22 -107 -25 -127 l-6 -38 -138 0 c-154 0 -165 4 -159
62 2 27 11 38 53 63 27 17 66 46 87 66 31 30 38 43 38 75 -1 51 -15 116 -41
182 -27 67 -45 72 -152 38 -137 -44 -157 -35 -118 49 47 103 246 223 373 224
36 1 38 0 53 -51z m-1037 -83 c23 -29 82 -185 82 -216 0 -41 -34 -81 -145
-174 -146 -122 -168 -150 -173 -225 -4 -59 -4 -59 45 -112 87 -93 95 -124 28
-115 -60 9 -115 38 -155 83 -65 75 -65 76 15 237 39 79 78 174 88 214 22 91
23 223 1 264 -8 17 -14 32 -12 34 5 6 150 33 180 34 17 1 33 -8 46 -24z m2716
-651 c13 -12 16 -40 16 -139 0 -69 -4 -126 -10 -130 -18 -11 -67 24 -84 59
-20 43 -21 115 -1 163 27 65 49 78 79 47z m56 -465 c0 -5 -9 -9 -20 -9 -16 0
-20 7 -20 33 l1 32 19 -24 c11 -13 20 -27 20 -32z"/>
</g>
</svg>
